<svg xmlns="http://www.w3.org/2000/svg" viewBox="0 0 32 32">
  <rect width="32" height="32" rx="8" fill="#D0BCFF"/>
  <path fill="#381E72" d="M16 6a2 2 0 0 1 2 2v2.2a5.8 5.8 0 0 1 2 1.16l1.9-1.1a2 2 0 0 1 2.73.73l1 1.73a2 2 0 0 1-.73 2.73l-1.9 1.1a5.9 5.9 0 0 1 0 2.32l1.9 1.1a2 2 0 0 1 .73 2.73l-1 1.73a2 2 0 0 1-2.73.73l-1.9-1.1a5.8 5.8 0 0 1-2 1.16V26a2 2 0 0 1-2 2 2 2 0 0 1-2-2v-2.2a5.8 5.8 0 0 1-2-1.16l-1.9 1.1a2 2 0 0 1-2.73-.73l-1-1.73a2 2 0 0 1 .73-2.73l1.9-1.1a5.9 5.9 0 0 1 0-2.32l-1.9-1.1a2 2 0 0 1-.73-2.73l1-1.73a2 2 0 0 1 2.73-.73l1.9 1.1a5.8 5.8 0 0 1 2-1.16V8a2 2 0 0 1 2-2Zm0 6.5a3.5 3.5 0 1 0 0 7 3.5 3.5 0 0 0 0-7Z"/>
</svg>
